<svg version="1.1" id="Layer_1" xmlns="http://www.w3.org/2000/svg" xmlns:xlink="http://www.w3.org/1999/xlink" x="0px" y="0px"
	 viewBox="0 0 512 512" style="enable-background:new 0 0 512 512;" xml:space="preserve">
<g>
	<g>
		<path style="fill:#E4E5E6;" d="M256,220.69c-4.873,0-8.828-3.946-8.828-8.828V35.31c0-4.882,3.955-8.828,8.828-8.828
			s8.828,3.946,8.828,8.828v176.552C264.828,216.744,260.873,220.69,256,220.69"/>
		<path style="fill:#E4E5E6;" d="M256,97.103c-2.26,0-4.52-0.865-6.241-2.586l-17.655-17.655c-3.452-3.452-3.452-9.031,0-12.482
			c3.452-3.452,9.031-3.452,12.482,0L256,75.794l11.414-11.414c3.452-3.452,9.031-3.452,12.482,0c3.452,3.452,3.452,9.031,0,12.482
			l-17.655,17.655C260.52,96.238,258.26,97.103,256,97.103"/>
		<path style="fill:#E4E5E6;" d="M256,150.069c-2.26,0-4.52-0.865-6.241-2.586l-35.31-35.31c-3.452-3.452-3.452-9.031,0-12.482
			s9.031-3.452,12.482,0L256,128.759l29.069-29.069c3.452-3.452,9.031-3.452,12.482,0s3.452,9.031,0,12.482l-35.31,35.31
			C260.52,149.204,258.26,150.069,256,150.069"/>
		<path style="fill:#E4E5E6;" d="M256,203.034c-2.26,0-4.52-0.865-6.241-2.586l-44.138-44.138c-3.452-3.452-3.452-9.031,0-12.482
			c3.452-3.452,9.031-3.452,12.482,0L256,181.725l37.897-37.897c3.452-3.452,9.031-3.452,12.482,0c3.452,3.452,3.452,9.031,0,12.482
			l-44.138,44.138C260.52,202.169,258.26,203.034,256,203.034"/>
		<path style="fill:#E4E5E6;" d="M228.414,228.414c-2.26,0-4.52-0.865-6.241-2.586L104.678,108.332
			c-3.452-3.443-3.452-9.031,0-12.482c3.452-3.443,9.031-3.443,12.482,0l117.495,117.495c3.452,3.452,3.452,9.031,0,12.482
			C232.934,227.549,230.674,228.414,228.414,228.414"/>
		<path style="fill:#E4E5E6;" d="M150.069,150.069h-26.483c-4.873,0-8.828-3.946-8.828-8.828s3.955-8.828,8.828-8.828h17.655
			v-17.655c0-4.882,3.955-8.828,8.828-8.828c4.873,0,8.828,3.946,8.828,8.828v26.483
			C158.897,146.123,154.942,150.069,150.069,150.069"/>
		<path style="fill:#E4E5E6;" d="M185.379,185.379h-44.138c-4.873,0-8.828-3.946-8.828-8.828s3.955-8.828,8.828-8.828h35.31v-35.31
			c0-4.882,3.955-8.828,8.828-8.828c4.873,0,8.828,3.946,8.828,8.828v44.138C194.207,181.433,190.252,185.379,185.379,185.379"/>
		<path style="fill:#E4E5E6;" d="M211.862,211.862h-17.655c-4.873,0-8.828-3.946-8.828-8.828s3.955-8.828,8.828-8.828h8.828v-8.828
			c0-4.882,3.955-8.828,8.828-8.828c4.873,0,8.828,3.946,8.828,8.828v17.655C220.69,207.916,216.735,211.862,211.862,211.862"/>
		<path style="fill:#E4E5E6;" d="M283.586,228.414c-2.26,0-4.52-0.865-6.241-2.586c-3.452-3.452-3.452-9.031,0-12.482L394.84,95.85
			c3.452-3.443,9.031-3.443,12.491,0c3.434,3.452,3.434,9.039,0,12.482L289.827,225.827
			C288.106,227.549,285.846,228.414,283.586,228.414"/>
		<path style="fill:#E4E5E6;" d="M388.414,150.069h-26.483c-4.873,0-8.828-3.946-8.828-8.828v-26.483
			c0-4.882,3.955-8.828,8.828-8.828s8.828,3.946,8.828,8.828v17.655h17.655c4.873,0,8.828,3.946,8.828,8.828
			S393.287,150.069,388.414,150.069"/>
		<path style="fill:#E4E5E6;" d="M370.759,185.379h-44.138c-4.873,0-8.828-3.946-8.828-8.828v-44.138
			c0-4.882,3.955-8.828,8.828-8.828c4.873,0,8.828,3.946,8.828,8.828v35.31h35.31c4.873,0,8.828,3.946,8.828,8.828
			S375.631,185.379,370.759,185.379"/>
		<path style="fill:#E4E5E6;" d="M317.793,211.862h-17.655c-4.873,0-8.828-3.946-8.828-8.828v-17.655
			c0-4.882,3.955-8.828,8.828-8.828c4.873,0,8.828,3.946,8.828,8.828v8.828h8.828c4.873,0,8.828,3.946,8.828,8.828
			S322.666,211.862,317.793,211.862"/>
		<path style="fill:#E4E5E6;" d="M256,485.517c-4.873,0-8.828-3.946-8.828-8.828V291.31c0-4.882,3.955-8.828,8.828-8.828
			s8.828,3.946,8.828,8.828V476.69C264.828,481.571,260.873,485.517,256,485.517"/>
		<path style="fill:#E4E5E6;" d="M273.655,450.207c-2.26,0-4.52-0.865-6.241-2.586L256,436.206l-11.414,11.414
			c-3.452,3.452-9.031,3.452-12.482,0c-3.452-3.452-3.452-9.031,0-12.482l17.655-17.655c3.452-3.452,9.031-3.452,12.482,0
			l17.655,17.655c3.452,3.452,3.452,9.031,0,12.482C278.175,449.342,275.915,450.207,273.655,450.207"/>
		<path style="fill:#E4E5E6;" d="M291.31,414.897c-2.26,0-4.52-0.865-6.241-2.586L256,383.241l-29.069,29.069
			c-3.452,3.452-9.031,3.452-12.482,0c-3.452-3.452-3.452-9.031,0-12.482l35.31-35.31c3.452-3.452,9.031-3.452,12.482,0l35.31,35.31
			c3.452,3.452,3.452,9.031,0,12.482C295.83,414.031,293.57,414.897,291.31,414.897"/>
		<path style="fill:#E4E5E6;" d="M300.138,370.759c-2.26,0-4.52-0.865-6.241-2.586L256,330.275l-37.897,37.897
			c-3.452,3.452-9.031,3.452-12.482,0c-3.452-3.452-3.452-9.031,0-12.482l44.138-44.138c3.452-3.452,9.031-3.452,12.482,0
			l44.138,44.138c3.452,3.452,3.452,9.031,0,12.482C304.658,369.894,302.398,370.759,300.138,370.759"/>
		<path style="fill:#E4E5E6;" d="M476.69,264.828H291.31c-4.873,0-8.828-3.946-8.828-8.828s3.955-8.828,8.828-8.828H476.69
			c4.882,0,8.828,3.946,8.828,8.828S481.571,264.828,476.69,264.828"/>
		<path style="fill:#E4E5E6;" d="M441.379,282.483c-2.26,0-4.52-0.865-6.241-2.586l-17.655-17.655
			c-3.452-3.452-3.452-9.031,0-12.482l17.655-17.655c3.452-3.452,9.031-3.452,12.482,0c3.452,3.452,3.452,9.031,0,12.482
			L436.206,256l11.414,11.414c3.452,3.452,3.452,9.031,0,12.482C445.899,281.618,443.639,282.483,441.379,282.483"/>
		<path style="fill:#E4E5E6;" d="M406.069,300.138c-2.26,0-4.52-0.865-6.241-2.586l-35.31-35.31c-3.452-3.452-3.452-9.031,0-12.482
			l35.31-35.31c3.452-3.452,9.031-3.452,12.482,0c3.452,3.452,3.452,9.031,0,12.482L383.241,256l29.069,29.069
			c3.452,3.452,3.452,9.031,0,12.482C410.589,299.273,408.329,300.138,406.069,300.138"/>
		<path style="fill:#E4E5E6;" d="M361.931,308.966c-2.26,0-4.52-0.865-6.241-2.586l-44.138-44.138
			c-3.452-3.452-3.452-9.031,0-12.482l44.138-44.138c3.452-3.452,9.031-3.452,12.482,0c3.452,3.452,3.452,9.031,0,12.482
			L330.275,256l37.897,37.897c3.452,3.452,3.452,9.031,0,12.482C366.451,308.1,364.191,308.966,361.931,308.966"/>
		<path style="fill:#E4E5E6;" d="M220.69,264.828H35.31c-4.873,0-8.828-3.946-8.828-8.828s3.955-8.828,8.828-8.828H220.69
			c4.873,0,8.828,3.946,8.828,8.828S225.562,264.828,220.69,264.828"/>
		<path style="fill:#E4E5E6;" d="M70.621,282.483c-2.26,0-4.52-0.865-6.241-2.586c-3.452-3.452-3.452-9.031,0-12.482L75.794,256
			L64.38,244.586c-3.452-3.452-3.452-9.031,0-12.482c3.452-3.452,9.031-3.452,12.482,0l17.655,17.655
			c3.452,3.452,3.452,9.031,0,12.482l-17.655,17.655C75.14,281.618,72.881,282.483,70.621,282.483"/>
		<path style="fill:#E4E5E6;" d="M105.931,300.138c-2.26,0-4.52-0.865-6.241-2.586c-3.452-3.452-3.452-9.031,0-12.482L128.759,256
			L99.69,226.931c-3.452-3.452-3.452-9.031,0-12.482s9.031-3.452,12.482,0l35.31,35.31c3.452,3.452,3.452,9.031,0,12.482
			l-35.31,35.31C110.451,299.273,108.191,300.138,105.931,300.138"/>
		<path style="fill:#E4E5E6;" d="M150.069,308.966c-2.26,0-4.52-0.865-6.241-2.586c-3.452-3.452-3.452-9.031,0-12.482L181.725,256
			l-37.897-37.897c-3.452-3.452-3.452-9.031,0-12.482c3.452-3.452,9.031-3.452,12.482,0l44.138,44.138
			c3.452,3.452,3.452,9.031,0,12.482l-44.138,44.138C154.589,308.1,152.329,308.966,150.069,308.966"/>
		<path style="fill:#E4E5E6;" d="M401.082,418.733c-2.26,0-4.52-0.865-6.241-2.586L277.346,298.651
			c-3.452-3.443-3.452-9.031,0-12.482c3.452-3.443,9.031-3.443,12.482,0l117.504,117.495c3.434,3.452,3.434,9.031,0,12.482
			C405.602,417.868,403.342,418.733,401.082,418.733"/>
		<path style="fill:#E4E5E6;" d="M361.931,406.069c-4.873,0-8.828-3.946-8.828-8.828v-26.483c0-4.882,3.955-8.828,8.828-8.828
			h26.483c4.873,0,8.828,3.946,8.828,8.828c0,4.882-3.955,8.828-8.828,8.828h-17.655v17.655
			C370.759,402.123,366.804,406.069,361.931,406.069"/>
		<path style="fill:#E4E5E6;" d="M326.621,388.414c-4.873,0-8.828-3.946-8.828-8.828v-44.138c0-4.882,3.955-8.828,8.828-8.828
			h44.138c4.873,0,8.828,3.946,8.828,8.828c0,4.882-3.955,8.828-8.828,8.828h-35.31v35.31
			C335.448,384.468,331.493,388.414,326.621,388.414"/>
		<path style="fill:#E4E5E6;" d="M300.138,335.448c-4.873,0-8.828-3.946-8.828-8.828v-17.655c0-4.882,3.955-8.828,8.828-8.828
			h17.655c4.873,0,8.828,3.946,8.828,8.828c0,4.882-3.955,8.828-8.828,8.828h-8.828v8.828
			C308.966,331.502,305.011,335.448,300.138,335.448"/>
		<path style="fill:#E4E5E6;" d="M110.918,418.733c-2.26,0-4.52-0.865-6.241-2.586c-3.452-3.452-3.452-9.031,0-12.482
			l117.495-117.495c3.452-3.443,9.031-3.443,12.482,0c3.452,3.452,3.452,9.039,0,12.482L117.159,416.147
			C115.437,417.868,113.178,418.733,110.918,418.733"/>
		<path style="fill:#E4E5E6;" d="M150.069,406.069c-4.873,0-8.828-3.946-8.828-8.828v-17.655h-17.655
			c-4.873,0-8.828-3.946-8.828-8.828c0-4.882,3.955-8.828,8.828-8.828h26.483c4.873,0,8.828,3.946,8.828,8.828v26.483
			C158.897,402.123,154.942,406.069,150.069,406.069"/>
		<path style="fill:#E4E5E6;" d="M185.379,388.414c-4.873,0-8.828-3.946-8.828-8.828v-35.31h-35.31
			c-4.873,0-8.828-3.946-8.828-8.828c0-4.882,3.955-8.828,8.828-8.828h44.138c4.873,0,8.828,3.946,8.828,8.828v44.138
			C194.207,384.468,190.252,388.414,185.379,388.414"/>
		<path style="fill:#E4E5E6;" d="M211.862,335.448c-4.873,0-8.828-3.946-8.828-8.828v-8.828h-8.828
			c-4.873,0-8.828-3.946-8.828-8.828c0-4.882,3.955-8.828,8.828-8.828h17.655c4.873,0,8.828,3.946,8.828,8.828v17.655
			C220.69,331.502,216.735,335.448,211.862,335.448"/>
	</g>
	<g>
		<polygon style="fill:#CFD2CF;" points="300.138,229.517 300.138,282.483 256,308.966 211.862,282.483 211.862,229.517
			256,203.034 		"/>
		<path style="fill:#CFD2CF;" d="M264.828,35.31h-17.655c-4.873,0-8.828-3.955-8.828-8.828V8.828c0-4.873,3.955-8.828,8.828-8.828
			h17.655c4.873,0,8.828,3.955,8.828,8.828v17.655C273.655,31.356,269.7,35.31,264.828,35.31"/>
		<path style="fill:#CFD2CF;" d="M117.161,95.848l-12.482,12.482c-3.452,3.452-9.039,3.452-12.482,0L79.705,95.848
			c-3.443-3.452-3.443-9.039,0-12.482l12.491-12.482c3.443-3.452,9.031-3.452,12.482,0l12.482,12.482
			C120.612,86.809,120.612,92.397,117.161,95.848"/>
		<path style="fill:#CFD2CF;" d="M407.324,108.333l-12.482-12.482c-3.452-3.452-3.452-9.039,0-12.482l12.482-12.491
			c3.452-3.443,9.039-3.443,12.482,0l12.482,12.491c3.452,3.443,3.452,9.031,0,12.482l-12.482,12.482
			C416.364,111.785,410.776,111.785,407.324,108.333"/>
		<path style="fill:#CFD2CF;" d="M247.172,476.69h17.655c4.873,0,8.828,3.955,8.828,8.828v17.655c0,4.873-3.955,8.828-8.828,8.828
			h-17.655c-4.873,0-8.828-3.955-8.828-8.828v-17.655C238.345,480.644,242.3,476.69,247.172,476.69"/>
		<path style="fill:#CFD2CF;" d="M476.69,264.828v-17.655c0-4.873,3.955-8.828,8.828-8.828h17.655c4.873,0,8.828,3.955,8.828,8.828
			v17.655c0,4.873-3.955,8.828-8.828,8.828h-17.655C480.644,273.655,476.69,269.7,476.69,264.828"/>
		<path style="fill:#CFD2CF;" d="M35.31,247.172v17.655c0,4.873-3.955,8.828-8.828,8.828H8.828C3.955,273.655,0,269.7,0,264.828
			v-17.655c0-4.873,3.955-8.828,8.828-8.828h17.655C31.356,238.345,35.31,242.3,35.31,247.172"/>
		<path style="fill:#CFD2CF;" d="M394.839,416.152l12.482-12.482c3.452-3.452,9.039-3.452,12.482,0l12.491,12.482
			c3.443,3.452,3.443,9.039,0,12.482l-12.491,12.482c-3.443,3.452-9.031,3.452-12.482,0l-12.482-12.482
			C391.388,425.191,391.388,419.603,394.839,416.152"/>
		<path style="fill:#CFD2CF;" d="M104.676,403.667l12.482,12.482c3.452,3.452,3.452,9.039,0,12.482l-12.482,12.491
			c-3.452,3.443-9.039,3.443-12.482,0l-12.482-12.491c-3.452-3.443-3.452-9.031,0-12.482l12.482-12.482
			C95.636,400.215,101.224,400.215,104.676,403.667"/>
	</g>
</g>
</svg>
